<svg width="212" height="168" viewBox="0 0 212 168" fill="none" xmlns="http://www.w3.org/2000/svg">
<path d="M162.421 153.872C162.068 153.608 161.714 153.345 161.368 153.082C167.745 149.11 173.463 144.348 178.252 138.782L177.303 143.752C191.962 128.392 197.404 113.053 198.596 91.8227C198.949 85.5776 198.818 79.2563 198.228 73.025C198.02 70.8001 197.764 68.4781 197.383 66.2462C201.964 62.6697 205.603 58.1227 208.008 52.8064C210.4 47.5248 211.453 41.7302 211.176 35.9426C210.684 25.7536 206.165 16.431 198.748 9.92246L204.785 12.3138C192.316 0.419646 177.31 -3.73914 160.869 3.82985C156.946 5.63199 153.258 8.04408 149.98 10.8582C148.94 11.7523 147.824 12.7712 146.833 13.8179C135.916 8.39064 120.764 5.68051 105.612 5.68051C90.4605 5.68051 75.3017 8.39064 64.3919 13.8179C63.4076 12.7712 62.2917 11.7523 61.2451 10.8582C57.9665 8.05101 54.2791 5.63892 50.356 3.82985C33.9149 -3.7322 18.9017 0.419646 6.43924 12.3207L12.4764 9.92939C5.05991 16.4379 0.540697 25.7605 0.0416429 35.9495C-0.24254 41.7371 0.817949 47.5317 3.20925 52.8134C5.61441 58.1297 9.25334 62.6766 13.8349 66.2532C13.4537 68.485 13.1973 70.807 12.9893 73.032C12.4002 79.2632 12.2685 85.5846 12.622 91.8297C13.8211 113.067 19.2621 128.399 33.9149 143.759L32.9653 138.789C37.7479 144.355 43.4663 149.124 49.85 153.089C49.7945 153.13 49.746 153.165 49.6906 153.206C66.5128 162.259 85.9621 167.422 106.687 167.422C127.411 167.422 145.89 162.508 162.414 153.872H162.421Z" fill="black"/>
<path fill-rule="evenodd" clip-rule="evenodd" d="M50.5015 81.2453C54.3137 78.9441 57.8833 77.7866 62.8114 77.6064C64.1838 77.5579 65.5493 77.551 66.9078 77.3846C69.0288 77.1351 71.6627 75.9498 73.5411 74.522C73.7768 72.2762 73.4441 70.0236 72.1202 68.1036C71.7182 67.5283 71.1082 66.8421 70.4705 66.3292C64.3848 66.9738 58.5487 69.0948 54.1473 73.5031C52.8304 74.82 51.0352 77.0935 50.2242 78.9788C50.2242 79.6373 50.2866 80.4898 50.5015 81.2384M127.633 99.0519C122.116 95.9536 114.942 93.9158 105.605 93.9158C96.2688 93.9158 89.1019 95.9536 83.5776 99.0519C83.9034 98.026 84.0767 96.9309 84.0767 95.7941C84.0767 89.8332 79.2456 85.0021 73.2846 85.0021C67.3237 85.0021 62.4926 89.8332 62.4926 95.7941C62.4926 101.755 67.3237 106.586 73.2846 106.586C73.6797 106.586 74.0679 106.565 74.4491 106.524C66.4435 115.839 65.2443 127.193 64.7869 128.933C63.9967 131.962 57.412 124.192 57.412 124.192C58.8606 129.459 61.8896 134.72 61.8896 134.72C54.383 130.374 48.332 123.138 48.332 123.138C50.3074 127.879 56.8921 135.642 56.8921 135.642C44.7831 128.399 37.5399 117.212 37.5399 117.212C40.5689 125.772 49.9123 136.696 49.9123 136.696C49.5103 136.405 49.1083 136.107 48.7132 135.795C43.5147 131.296 36.3616 117.96 36.3616 117.96C36.3616 117.96 30.0402 100.514 28.5292 96.9655C27.0182 93.4098 26.4221 85.7091 26.5538 82.6801C26.6855 79.6511 32.6118 90.6442 33.0068 91.8988C33.4019 93.1464 31.0314 84.4615 31.0314 84.4615C31.0314 84.4615 28.5292 75.8389 28.6401 68.2284C28.751 60.6247 34.5733 46.6443 34.5733 46.6443C32.4662 52.9656 34.4416 59.5434 34.4416 59.5434C34.8367 49.0148 40.6313 44.3362 40.6313 44.3362C38.6559 47.6909 38.5242 52.6329 38.5242 52.6329C41.5531 43.6777 51.8184 40.919 51.8184 40.919C54.0572 34.7294 48.2626 31.0488 38.2608 27.7565C28.2589 24.4641 20.5513 33.4193 20.5513 33.4193C20.9464 30.4597 23.2476 26.5712 23.2476 26.5712C10.4801 40.3922 19.5601 49.2782 19.5601 49.2782C18.1808 44.2738 21.3345 40.5863 21.3345 40.5863C21.4662 49.4722 26.533 45.7224 26.533 52.1061C26.533 58.4899 21.2999 63.3071 21.2999 63.3071L18.6798 61.3733C0.713905 48.1414 3.74288 20.1875 23.7258 10.5668C37.2003 4.07914 50.5985 7.90522 60.0459 19.1686L62.7283 22.3709L66.4227 20.4162C76.4037 15.1276 91.001 12.4868 105.605 12.4868C120.21 12.4868 134.807 15.1276 144.788 20.4162L148.482 22.3709L132.09 23.9997C132.09 23.9997 130.246 52.9656 127.085 59.0167C123.925 65.0746 115.767 81.1344 115.767 81.1344C115.767 81.1344 126.469 95.3713 127.633 99.0519Z" fill="#FFDB92"/>
<path fill-rule="evenodd" clip-rule="evenodd" d="M12.7675 55.5856C1.78138 41.217 6.32831 18.9467 23.7259 10.5737C37.2003 4.08598 50.5985 7.91206 60.0459 19.1754L62.7283 22.3777L66.4227 20.4231C73.3471 16.7564 82.5033 14.3582 92.3319 13.2353C92.0616 13.2838 65.2998 18.3991 59.2765 33.8559C59.2765 33.8559 59.0131 28.7198 59.935 25.8225C59.935 25.8225 48.2211 9.36763 25.4448 17.7892C25.4448 17.7892 29.264 14.171 33.9357 12.9858C33.9357 12.9858 3.4033 15.6959 12.7675 55.5856Z" fill="#FFB600"/>
<path fill-rule="evenodd" clip-rule="evenodd" d="M160.709 81.2452C156.897 78.944 153.328 77.7864 148.399 77.6062C147.027 77.5577 145.662 77.5508 144.303 77.3844C142.182 77.1349 139.548 75.9496 137.67 74.5218C137.434 72.276 137.767 70.0234 139.091 68.1034C139.493 67.5281 140.103 66.8419 140.74 66.329C146.826 66.9736 152.662 69.0946 157.064 73.5029C158.38 74.8198 160.176 77.0933 160.987 78.9786C160.987 79.6371 160.917 80.4896 160.709 81.2382M180.387 55.8697C181.503 60.8047 185.787 64.9566 185.787 64.9566C185.787 64.9566 189.606 77.8557 185.26 94.0473C185.26 94.0473 189.46 85.702 190.396 79.041C190.396 79.041 190.708 95.4613 185.315 111.105H185.302L184.927 112.207C182.501 118.889 178.994 125.356 173.948 130.249C173.948 130.249 181.06 120.774 183.555 108.263C183.555 108.263 174.995 126.825 161.305 136.703C161.305 136.703 170.656 125.779 173.678 117.219C173.678 117.219 166.435 128.406 154.326 135.649C154.326 135.649 160.91 127.879 162.886 123.145C162.886 123.145 156.828 130.388 149.328 134.727C149.328 134.727 152.357 129.459 153.806 124.198C153.806 124.198 147.221 131.968 146.431 128.939C145.973 127.193 144.774 115.839 136.769 106.531C137.15 106.572 137.538 106.593 137.933 106.593C143.894 106.593 148.725 101.762 148.725 95.8009C148.725 89.84 143.894 85.0089 137.933 85.0089C131.972 85.0089 127.141 89.84 127.141 95.8009C127.141 96.9376 127.314 98.0328 127.64 99.0586C127.64 99.0586 110.506 84.6346 87.7158 93.6245C87.7158 93.6245 94.4669 87.4556 106.243 85.7366C106.368 82.0076 106.347 75.6031 105.37 67.4934C103.79 54.3309 131.175 45.9024 125.907 35.3738C120.639 24.8451 92.4707 20.6309 92.4707 20.6309C117.749 13.256 148.496 22.3845 148.496 22.3845L151.179 19.1823C160.626 7.91889 174.024 4.09282 187.499 10.5805C207.482 20.2012 210.511 48.1551 192.531 61.4008L189.911 63.3347C189.911 63.3347 184.678 58.5174 184.678 52.1337C184.678 45.75 189.745 49.4998 189.876 40.6138C189.876 40.6138 193.037 44.3013 191.651 49.3057C191.651 49.3057 200.738 40.4198 187.963 26.5988C187.963 26.5988 190.264 30.4803 190.66 33.4469C190.66 33.4469 182.959 24.4916 172.95 27.784C162.948 31.0764 157.154 34.7638 159.392 40.9466C159.392 40.9466 169.658 43.7121 172.687 52.6605C172.687 52.6605 172.555 47.7254 170.58 44.3637C170.58 44.3637 176.374 49.0354 176.769 59.571C176.769 59.571 178.745 52.9862 176.637 46.6718C176.637 46.6718 179.271 50.9484 180.387 55.8904V55.8697Z" fill="#FFB600"/>
<path fill-rule="evenodd" clip-rule="evenodd" d="M30.8305 55.87C29.7146 60.8051 25.431 64.9569 25.431 64.9569C25.431 64.9569 21.6119 77.8561 25.9578 94.0476C25.9578 94.0476 21.7574 85.7023 20.8217 79.0413C20.8217 79.0413 20.5098 95.4616 25.9024 111.106H25.9162L26.2905 112.208C28.7165 118.889 32.2237 125.356 37.2697 130.25C37.2697 130.25 30.1582 120.775 27.6629 108.264C27.6629 108.264 36.2231 126.826 49.9124 136.703C31.0246 116.332 30.1027 87.754 30.1027 87.754C34.5803 102.691 41.2899 109.151 41.2899 109.151C29.0214 88.3224 31.8979 61.6299 33.6862 51.1567C33.804 49.7011 34.0744 48.1693 34.5803 46.6514C34.5803 46.6514 31.9465 50.928 30.8305 55.87Z" fill="#FFB600"/>
<path fill-rule="evenodd" clip-rule="evenodd" d="M122.067 117.94C121.014 127.81 108.773 127.027 108.773 127.027C108.773 127.027 105.945 132.094 108.71 134.928C108.71 134.928 119.766 136.966 128.125 131.837C130.877 158.017 80.3476 158.017 83.0924 131.837C91.4515 136.973 102.507 134.928 102.507 134.928C105.273 132.101 102.445 127.027 102.445 127.027C102.445 127.027 90.2039 127.817 89.1503 117.94C87.2095 99.7521 124.008 99.7521 122.067 117.94ZM139.049 129.328C139.049 129.328 139.707 124.261 139.118 120.9C139.118 120.9 143.131 129.259 140.234 142.158C134.114 169.426 77.1037 169.426 70.9834 142.158C68.0861 129.259 72.0993 120.9 72.0993 120.9C71.5101 124.254 72.1617 129.328 72.1617 129.328C74.6015 88.0313 136.609 88.0313 139.042 129.328H139.049Z" fill="white"/>
<path fill-rule="evenodd" clip-rule="evenodd" d="M86.0798 158.758C78.5109 155.41 72.7094 149.879 70.9765 142.164C68.0793 129.265 72.0925 120.906 72.0925 120.906C71.5033 124.261 72.1549 129.334 72.1549 129.334C72.4044 125.058 73.3055 121.225 74.7056 117.835C75.1215 117.163 79.5159 110.218 85.5253 106.593C85.5253 106.593 69.3338 124.233 78.5455 146.219C78.5455 146.219 74.463 140.951 73.8045 135.69C73.8045 135.69 73.2223 151.57 86.066 158.765" fill="#FFB600"/>
<path fill-rule="evenodd" clip-rule="evenodd" d="M139.049 129.328C139.049 129.328 139.707 124.261 139.118 120.899C139.118 120.899 143.131 129.259 140.234 142.158C136.47 158.925 113.459 165.378 94.8757 161.524C109.258 162.903 115.164 154.849 105.432 153.671C95.6866 152.485 89.5386 146.691 89.5386 146.691H89.5455C102.549 156.318 130.17 151.363 128.118 131.83C118.04 134.998 107.615 132.78 107.595 132.773C107.061 130.083 108.766 127.027 108.766 127.027C108.766 127.027 121.007 127.817 122.06 117.94C122.123 117.323 122.143 116.734 122.123 116.158C122.123 116.061 122.109 115.971 122.102 115.874C122.095 115.722 122.081 115.569 122.067 115.417C120.528 98.3311 94.5568 102.199 94.5568 102.199C112.391 96.5082 126.378 105.061 127.453 105.748C133.878 110.904 138.411 118.765 139.035 129.328" fill="#C6D4E0"/>
<path fill-rule="evenodd" clip-rule="evenodd" d="M93.6696 113.046C93.7459 112.915 93.836 112.783 93.9192 112.651C96.3174 109.193 101.654 107.966 105.605 107.966C109.556 107.966 114.893 109.186 117.292 112.651C117.382 112.783 117.465 112.915 117.541 113.046C114.269 110.96 109.404 110.177 105.598 110.177C101.793 110.177 96.9273 110.96 93.6558 113.046" fill="#FFB600"/>
<path fill-rule="evenodd" clip-rule="evenodd" d="M84.3539 129.03C89.8158 132.78 96.9273 131.005 96.9273 131.005C86.2531 129.238 84.2222 119.617 84.2222 119.617C84.2222 119.617 82.3785 125.342 84.3539 129.03Z" fill="#FFB600"/>
</svg>
